<svg width="48" height="47" viewBox="0 0 48 47" fill="none" xmlns="http://www.w3.org/2000/svg">
<g id="emojione:small-airplane" clip-path="url(#clip0_1073_165)">
<path id="Vector" d="M15.9688 18.1904L6.02202 16.4878L15.5677 20.539" fill="#FFCE31"/>
<path id="Vector_2" d="M15.2955 17.7372C15.2955 17.7372 18.9169 17.7863 21.6434 20.2978L21.4878 23.2863C21.4878 23.2863 17.8737 23.0982 15.1399 20.7258C14.8069 20.4297 14.4811 19.9946 14.5209 19.23C14.5643 18.396 14.8785 17.7155 15.2955 17.7372Z" fill="#B2C1C0"/>
<path id="Vector_3" d="M39.669 19.4243L33.38 30.4564L24.4273 27.0633L36.8628 18.4419L39.669 19.4243Z" fill="#42ADE2"/>
<path id="Vector_4" d="M37.0909 14.0633L36.8629 18.4419L39.669 19.4243L38.4339 15.0392L37.0909 14.0633Z" fill="#428BC1"/>
<path id="Vector_5" d="M21.4663 23.7034C21.0825 23.6834 20.8118 22.8892 20.8618 21.9296C20.9117 20.97 21.2634 20.2083 21.6473 20.2283C22.0311 20.2482 22.3018 21.0424 22.2518 22.002C22.2019 22.9616 21.8502 23.7233 21.4663 23.7034Z" fill="#3E4347"/>
<path id="Vector_6" d="M11.236 12.7172L14.843 19.7346C14.843 19.7346 30.8017 25.0954 36.3995 27.3382C41.9937 29.6504 39.9464 31.4952 43.8371 35.7398C48.328 40.5034 41.7109 40.4377 20.4786 30.621C18.5724 29.7551 17.7658 26.5074 14.7432 24.329C11.5193 22.0007 8.64723 20.9452 8.64723 20.9452L7.01374 10.8248L11.236 12.7172Z" fill="#DAE3EA"/>
<path id="Vector_7" d="M10.8125 7.46839L13.6151 8.52027L11.2253 12.9257L4.75154 14.1218L1.9374 11.9543L7.01752 10.7553L10.8125 7.46839ZM30.5544 33.8635L3.45896 37.6098L0.714328 35.4459L19.7569 28.423L30.5544 33.8635Z" fill="#42ADE2"/>
<path id="Vector_8" d="M0.971228 30.5113L0.714311 35.4459L3.45895 37.6098L2.31422 31.4872L0.971228 30.5113Z" fill="#428BC1"/>
<path id="Vector_9" d="M39.9055 29.6114C40.6961 30.4888 41.0625 31.4836 41.696 32.7013C41.0306 33.4332 40.0359 33.7996 38.9239 33.7417C36.9083 33.6367 35.3894 32.0245 35.4907 30.0784L37.6453 30.1906C38.5452 30.3071 39.3278 29.9994 39.9055 29.6114Z" fill="#3E4347"/>
<path id="Vector_10" d="M38.0289 36.2039L38.7167 36.3791C39.3689 31.8832 38.3104 29.4586 38.2446 29.3855L37.6524 30.0516C37.7219 30.0552 38.6558 32.1945 38.0289 36.2039Z" fill="#DAE3EA"/>
<g id="Group">
<path id="Vector_11" d="M30.4141 31.2079C30.0302 31.1879 29.7498 30.5805 29.7878 29.8512C29.8258 29.1219 30.1677 28.5469 30.5516 28.5669C30.9354 28.5868 31.2158 29.1943 31.1778 29.9236C31.1399 30.6529 30.7979 31.2279 30.4141 31.2079Z" fill="#3E4347"/>
<path id="Vector_12" d="M27.6118 30.156C27.228 30.1361 26.9476 29.5286 26.9855 28.7993C27.0235 28.07 27.3655 27.495 27.7493 27.515C28.1332 27.535 28.4136 28.1424 28.3756 28.8717C28.3376 29.601 27.9957 30.176 27.6118 30.156Z" fill="#3E4347"/>
<path id="Vector_13" d="M24.8091 29.1042C24.4252 29.0842 24.1448 28.4767 24.1828 27.7474C24.2208 27.0181 24.5627 26.4431 24.9466 26.4631C25.3304 26.4831 25.6108 27.0905 25.5728 27.8198C25.5349 28.5491 25.1929 29.1241 24.8091 29.1042Z" fill="#3E4347"/>
</g>
<path id="Vector_14" d="M10.0925 21.2992L1.59369 18.557L9.62196 23.6442" fill="#FFCE31"/>
<path id="Vector_15" d="M10.1109 20.9517C10.1109 20.9517 13.7358 20.9314 16.4406 23.8598L16.2597 27.3349C16.2597 27.3349 12.6456 27.1468 9.92993 24.4268C9.59689 24.1307 9.27471 23.6261 9.32537 22.6531C9.37603 21.6801 9.69384 20.93 10.1109 20.9517Z" fill="#B2C1C0"/>
<path id="Vector_16" d="M16.2559 27.4044C15.872 27.3844 15.6014 26.5903 15.6513 25.6307C15.7013 24.6711 16.053 23.9093 16.4368 23.9293C16.8207 23.9493 17.0913 24.7434 17.0414 25.7031C16.9914 26.6627 16.6397 27.4244 16.2559 27.4044Z" fill="#3E4347"/>
</g>
<defs>
<clipPath id="clip0_1073_165">
<rect width="44.5414" height="44.5414" fill="white" transform="matrix(-0.998647 -0.0519938 -0.0519938 0.998647 47.041 2.31588)"/>
</clipPath>
</defs>
</svg>
