<svg width="50" height="50" viewBox="0 0 50 50" fill="none" xmlns="http://www.w3.org/2000/svg">
<path id="gisMapRoute0" fill-rule="evenodd" clip-rule="evenodd" d="M41.5585 0C38.1185 0 35.2095 2.36751 34.369 5.54603L33.4435 5.11603C33.2784 5.03928 33.0986 4.99951 32.9165 4.99951C32.7344 4.99951 32.5546 5.03928 32.3895 5.11603L17.083 12.2266L1.7765 5.11653C1.58604 5.02808 1.37637 4.98904 1.16684 5.00301C0.957304 5.01698 0.75467 5.08352 0.57764 5.19647C0.400609 5.30943 0.254889 5.46516 0.153932 5.6493C0.0529751 5.83344 3.52662e-05 6.04004 3.37127e-08 6.25004V41.3938C-5.53065e-05 41.6321 0.0680221 41.8655 0.196208 42.0664C0.324394 42.2673 0.507346 42.4274 0.7235 42.5278L16.5565 49.8823C16.7216 49.9591 16.9014 49.9988 17.0835 49.9988C17.2656 49.9988 17.4454 49.9591 17.6105 49.8823L32.917 42.7723L48.2235 49.8823C49.052 50.2668 50 49.6623 50 48.7493V13.6056C50.0001 13.3673 49.932 13.1339 49.8038 12.933C49.6756 12.732 49.4927 12.572 49.2765 12.4716L47.6615 11.7206L48.167 10.8596C48.282 10.6511 48.3735 10.4291 48.452 10.2021C48.8141 9.3196 49.0002 8.37489 49 7.42105C49 3.34252 45.649 0 41.5585 0ZM41.5585 3.47652C43.761 3.47652 45.5125 5.22453 45.5125 7.42105C45.5125 9.61706 43.761 11.3636 41.5585 11.3636C39.356 11.3636 37.6045 9.61706 37.6045 7.42105C37.6045 5.22453 39.356 3.47652 41.5585 3.47652ZM33.4755 7.88755L34.164 8.20805C34.2983 9.45744 34.7502 10.6517 35.4765 11.6771L40.6505 20.6221C41.3755 21.5691 41.8575 21.3891 42.46 20.5721L46.3885 13.8856L47.5 14.4026V46.7903L33.661 40.3617L33.548 20.5236C33.752 20.5676 33.9555 20.6101 34.16 20.6586L34.62 18.7131C34.2601 18.628 33.8987 18.5492 33.536 18.4766L33.476 7.88755H33.4755ZM31.9765 8.06455L32.034 18.2326C31.5176 18.1618 30.9982 18.1149 30.4775 18.0921L30.4035 20.0901C30.9475 20.1101 31.496 20.1691 32.046 20.2491L32.161 40.3662L17.823 47.0278L17.6385 14.7256L31.9765 8.06455ZM2.5 8.20905L16.1375 14.5441L16.323 47.0178L2.5 40.5957V8.20905ZM28.2715 18.2286C27.583 18.3521 26.8785 18.5726 26.2225 18.9541C25.4378 19.4085 24.7925 20.069 24.3565 20.8641L26.1075 21.8301C26.3684 21.3552 26.753 20.9597 27.2205 20.6856L27.2235 20.6836L27.2265 20.6816C27.63 20.4466 28.1105 20.2886 28.625 20.1966L28.2715 18.2286ZM36.6045 19.2441L36.038 21.1611C37.2895 21.5311 38.529 21.9561 39.7615 22.4161L40.461 20.5421C39.195 20.0701 37.911 19.6301 36.6045 19.2441ZM23.6035 23.0421L23.5885 23.1211L23.587 23.1281C23.3375 24.5436 23.364 25.9367 23.42 27.2607L25.418 27.1757C25.3635 25.8912 25.352 24.6482 25.5565 23.4816L25.5685 23.4191L23.6035 23.0421ZM25.537 29.1472L23.542 29.2822C23.632 30.6167 23.728 31.9247 23.7245 33.2072L25.7245 33.2122C25.7285 31.8272 25.627 30.4732 25.537 29.1472ZM23.625 35.0922C23.57 35.5687 23.488 36.0322 23.368 36.4772L23.367 36.4797L23.366 36.4837C23.191 37.1512 22.8965 37.7692 22.4855 38.2532L24.009 39.5482C24.653 38.7907 25.0615 37.8992 25.299 36.9972L25.3 36.9942C25.45 36.4362 25.5475 35.8742 25.6115 35.3192L23.625 35.0922ZM6.741 37.0412L5.843 38.8282C7.083 39.4517 8.3655 39.9672 9.657 40.4132L10.3095 38.5227C9.082 38.0992 7.8835 37.6152 6.741 37.0412ZM12.159 39.0977L11.627 41.0258C12.95 41.3913 14.31 41.6818 15.7 41.8383L15.923 39.8507C14.6625 39.7092 13.4055 39.4422 12.159 39.0977ZM21.2295 39.2387C20.2335 39.7487 19.031 39.9372 17.7945 39.9522L17.8195 41.9523C19.2365 41.9353 20.7515 41.7303 22.1405 41.0188L21.2295 39.2387Z" fill="#C23E3E"/>
</svg>
