<svg width="40" height="40" viewBox="0 0 40 40" fill="none" xmlns="http://www.w3.org/2000/svg">
<g id="Group 16">
<circle id="Ellipse 5" cx="20" cy="20" r="20" fill="#FF0000" fill-opacity="0.7"/>
<path id="Vector" d="M20 17.3077C19.2697 17.3077 18.5559 17.5242 17.9487 17.93C17.3415 18.3357 16.8682 18.9123 16.5888 19.587C16.3093 20.2617 16.2362 21.0041 16.3786 21.7203C16.5211 22.4366 16.8728 23.0945 17.3891 23.6109C17.9055 24.1272 18.5634 24.4789 19.2797 24.6214C19.9959 24.7638 20.7383 24.6907 21.413 24.4112C22.0877 24.1318 22.6643 23.6585 23.07 23.0513C23.4758 22.4441 23.6923 21.7303 23.6923 21C23.6913 20.0211 23.302 19.0825 22.6097 18.3903C21.9175 17.698 20.9789 17.3087 20 17.3077ZM20 23.4615C19.5132 23.4615 19.0372 23.3172 18.6324 23.0467C18.2276 22.7762 17.9121 22.3918 17.7258 21.942C17.5395 21.4922 17.4908 20.9973 17.5858 20.5198C17.6807 20.0423 17.9152 19.6037 18.2594 19.2594C18.6037 18.9152 19.0423 18.6807 19.5198 18.5858C19.9973 18.4908 20.4922 18.5395 20.942 18.7258C21.3918 18.9121 21.7762 19.2276 22.0467 19.6324C22.3172 20.0372 22.4615 20.5132 22.4615 21C22.4615 21.6528 22.2022 22.2789 21.7406 22.7406C21.2789 23.2022 20.6528 23.4615 20 23.4615ZM23.6923 13H16.3077C15.1656 13.0012 14.0706 13.4555 13.263 14.263C12.4555 15.0706 12.0012 16.1656 12 17.3077V24.6923C12.0012 25.8344 12.4555 26.9294 13.263 27.737C14.0706 28.5445 15.1656 28.9988 16.3077 29H23.6923C24.8344 28.9988 25.9294 28.5445 26.737 27.737C27.5445 26.9294 27.9988 25.8344 28 24.6923V17.3077C27.9988 16.1656 27.5445 15.0706 26.737 14.263C25.9294 13.4555 24.8344 13.0012 23.6923 13ZM26.7692 24.6923C26.7692 25.5084 26.4451 26.291 25.868 26.868C25.291 27.4451 24.5084 27.7692 23.6923 27.7692H16.3077C15.4916 27.7692 14.709 27.4451 14.132 26.868C13.5549 26.291 13.2308 25.5084 13.2308 24.6923V17.3077C13.2308 16.4916 13.5549 15.709 14.132 15.132C14.709 14.5549 15.4916 14.2308 16.3077 14.2308H23.6923C24.5084 14.2308 25.291 14.5549 25.868 15.132C26.4451 15.709 26.7692 16.4916 26.7692 17.3077V24.6923ZM24.9231 17C24.9231 17.1826 24.8689 17.361 24.7675 17.5128C24.6661 17.6646 24.5219 17.7829 24.3532 17.8528C24.1846 17.9227 23.999 17.941 23.8199 17.9053C23.6409 17.8697 23.4764 17.7818 23.3473 17.6527C23.2182 17.5236 23.1303 17.3591 23.0947 17.1801C23.059 17.001 23.0773 16.8154 23.1472 16.6468C23.2171 16.4781 23.3354 16.3339 23.4872 16.2325C23.639 16.1311 23.8174 16.0769 24 16.0769C24.2448 16.0769 24.4796 16.1742 24.6527 16.3473C24.8258 16.5204 24.9231 16.7552 24.9231 17Z" fill="white"/>
</g>
</svg>
