<svg width="40" height="40" viewBox="0 0 40 40" fill="none" xmlns="http://www.w3.org/2000/svg">
<g id="Group 15">
<circle id="Ellipse 4" cx="20" cy="20" r="20" fill="#FF0000" fill-opacity="0.7"/>
<g id="Group 13">
<path id="Vector" d="M16.05 27H13.05V17H16.05V27ZM27.05 27H24.05V21.658C24.05 20.266 23.554 19.573 22.571 19.573C21.792 19.573 21.298 19.961 21.05 20.738V27H18.05C18.05 27 18.09 18 18.05 17H20.418L20.601 19H20.663C21.278 18 22.261 17.322 23.609 17.322C24.634 17.322 25.463 17.607 26.096 18.323C26.733 19.04 27.05 20.002 27.05 21.353V27Z" fill="white"/>
<path id="Vector_2" d="M14.55 16C15.406 16 16.1 15.3284 16.1 14.5C16.1 13.6716 15.406 13 14.55 13C13.694 13 13 13.6716 13 14.5C13 15.3284 13.694 16 14.55 16Z" fill="white"/>
</g>
</g>
</svg>
