<svg width="40" height="40" viewBox="0 0 40 40" fill="none" xmlns="http://www.w3.org/2000/svg">
<g id="Group 14">
<circle id="Ellipse 3" cx="20" cy="20" r="20" fill="#FF0000" fill-opacity="0.7"/>
<path id="Vector" d="M29 15.5294C28.3743 15.7971 27.6998 15.9729 27.001 16.0571C27.7161 15.6518 28.2686 15.0094 28.5287 14.2371C27.8542 14.6194 27.1066 14.8871 26.3184 15.04C25.6764 14.3824 24.7744 14 23.7505 14C21.8408 14 20.2806 15.4682 20.2806 17.2806C20.2806 17.5406 20.3131 17.7929 20.37 18.03C17.4771 17.8924 14.9011 16.5847 13.1864 14.6041C12.8858 15.0859 12.7151 15.6518 12.7151 16.2482C12.7151 17.3876 13.3246 18.3971 14.2672 18.9706C13.6902 18.9706 13.1539 18.8176 12.6826 18.5882V18.6112C12.6826 20.2018 13.8853 21.5324 15.478 21.8306C14.9667 21.9623 14.4298 21.9806 13.9097 21.8841C14.1304 22.536 14.5626 23.1064 15.1457 23.5152C15.7287 23.9239 16.4332 24.1505 17.1601 24.1629C15.9279 25.0809 14.4005 25.5771 12.8289 25.57C12.5526 25.57 12.2763 25.5547 12 25.5241C13.544 26.4571 15.3805 27 17.347 27C23.7505 27 27.2691 21.9988 27.2691 17.6629C27.2691 17.5176 27.2691 17.38 27.261 17.2347C27.9436 16.7759 28.5287 16.1947 29 15.5294Z" fill="white"/>
</g>
</svg>
