<svg width="53" height="42" viewBox="0 0 53 42" fill="none" xmlns="http://www.w3.org/2000/svg">
<path id="Vector" d="M51.7955 25.6869L41.7809 2.59461C41.7087 2.42812 41.6066 2.2767 41.4797 2.14809C40.1244 0.775793 38.2865 0.00488014 36.3701 0.00488014C34.4536 0.00488014 32.6157 0.775793 31.2604 2.14809C30.9898 2.42178 30.8373 2.79291 30.8364 3.18022V9.76826H22.1636V3.18022C22.1638 2.98761 22.1264 2.79687 22.0536 2.61892C21.9809 2.44098 21.8742 2.27932 21.7396 2.14321C20.3843 0.770913 18.5464 0 16.6299 0C14.7135 0 12.8756 0.770913 11.5203 2.14321C11.3934 2.27182 11.2913 2.42324 11.2191 2.58973L1.20452 25.6869C0.444624 27.1999 0.0334545 28.8678 0.00195736 30.565C-0.0295398 32.2622 0.319456 33.9445 1.02268 35.4854C1.7259 37.0262 2.76504 38.3855 4.06187 39.4608C5.35871 40.5361 6.87946 41.2995 8.50969 41.6935C10.1399 42.0875 11.8371 42.1018 13.4736 41.7355C15.1101 41.3691 16.6433 40.6315 17.9576 39.5783C19.272 38.5251 20.3334 37.1836 21.0619 35.6548C21.7905 34.1261 22.1671 32.4499 22.1636 30.7524V12.6963H30.8364V30.7524C30.8329 32.4499 31.2095 34.1261 31.9381 35.6548C32.6666 37.1836 33.728 38.5251 35.0424 39.5783C36.3567 40.6315 37.8899 41.3691 39.5264 41.7355C41.1629 42.1018 42.8601 42.0875 44.4903 41.6935C46.1205 41.2995 47.6413 40.5361 48.9381 39.4608C50.235 38.3855 51.2741 37.0262 51.9773 35.4854C52.6805 33.9445 53.0295 32.2622 52.998 30.565C52.9665 28.8678 52.5554 27.1999 51.7955 25.6869ZM11.0818 39.0484C9.46179 39.0484 7.87816 38.5619 6.53117 37.6503C5.18419 36.7387 4.13434 35.4431 3.51438 33.9272C2.89443 32.4112 2.73223 30.7432 3.04827 29.1339C3.36432 27.5246 4.14443 26.0464 5.28995 24.8862C6.43547 23.726 7.89495 22.9359 9.48384 22.6157C11.0727 22.2956 12.7196 22.4599 14.2163 23.0878C15.713 23.7157 16.9923 24.7791 17.8923 26.1434C18.7923 27.5076 19.2727 29.1116 19.2727 30.7524C19.2727 32.9526 18.4098 35.0628 16.8737 36.6186C15.3376 38.1744 13.2542 39.0484 11.0818 39.0484ZM11.0818 19.5283C9.5426 19.5277 8.02032 19.8536 6.61294 20.4848L13.7463 4.04398C14.5001 3.36397 15.4646 2.97166 16.4735 2.93469C17.4823 2.89772 18.4723 3.2184 19.2727 3.84146V23.1883C18.2349 22.0335 16.97 21.1113 15.5594 20.481C14.1488 19.8507 12.6236 19.5262 11.0818 19.5283ZM33.7273 3.8439C34.5277 3.22084 35.5177 2.90016 36.5265 2.93713C37.5354 2.9741 38.4999 3.36641 39.2537 4.04642L46.3871 20.4848C44.2639 19.5319 41.8984 19.2803 39.626 19.7655C37.3537 20.2508 35.2899 21.4483 33.7273 23.1883V3.8439ZM41.9182 39.0484C40.2982 39.0484 38.7146 38.5619 37.3676 37.6503C36.0206 36.7387 34.9707 35.4431 34.3508 33.9272C33.7308 32.4112 33.5686 30.7432 33.8847 29.1339C34.2007 27.5246 34.9808 26.0464 36.1263 24.8862C37.2719 23.726 38.7313 22.9359 40.3202 22.6157C41.9091 22.2956 43.556 22.4599 45.0527 23.0878C46.5494 23.7157 47.8287 24.7791 48.7287 26.1434C49.6287 27.5076 50.1091 29.1116 50.1091 30.7524C50.1091 32.9526 49.2461 35.0628 47.71 36.6186C46.174 38.1744 44.0906 39.0484 41.9182 39.0484Z" fill="#C23E3E"/>
</svg>
