<svg width="23" height="17" viewBox="0 0 23 17" fill="none" xmlns="http://www.w3.org/2000/svg">
<path id="Vector" d="M21.6641 4.93631L21.6634 4.89274C21.6462 3.85433 21.2215 2.86429 20.4811 2.13608C19.7407 1.40801 18.7439 1 17.7056 1L21.6641 4.93631ZM21.6641 4.93631L21.6686 4.97966M21.6641 4.93631L21.6686 4.97966M21.6686 4.97966C21.7841 6.08965 21.7686 7.72721 21.0142 9.62689L21.0142 9.62695M21.6686 4.97966L21.0142 9.62695M21.0142 9.62695C20.2435 11.5677 18.7168 13.7515 15.8299 15.9167C15.7861 15.9495 15.7363 15.9734 15.6833 15.987C15.6303 16.0005 15.5751 16.0036 15.521 15.9958C15.4116 15.9802 15.3129 15.9217 15.2466 15.8333C15.1803 15.7449 15.1518 15.6338 15.1674 15.5244C15.183 15.415 15.2415 15.3163 15.3299 15.25C17.6504 13.5097 19.0261 11.7823 19.8308 10.2184L20.8496 8.23841M21.0142 9.62695L20.8496 8.23841M20.8496 8.23841L18.6929 8.79226M20.8496 8.23841L18.6929 8.79226M18.6929 8.79226C18.149 8.93195 17.5815 8.95429 17.0283 8.85781M18.6929 8.79226L17.0283 8.85781M8.91409 4.93631L8.91336 4.89274C8.89615 3.85433 8.47153 2.86429 7.73106 2.13608C6.99071 1.40801 5.99394 1 4.95559 1L8.91409 4.93631ZM8.91409 4.93631L8.9186 4.97966M8.91409 4.93631L8.9186 4.97966M8.9186 4.97966C9.03409 6.08965 9.01863 7.72721 8.26417 9.62689L8.26394 9.62749M8.9186 4.97966L8.26394 9.62749M8.26394 9.62749C7.49487 11.5675 5.96712 13.7512 3.07989 15.9167C3.03612 15.9495 2.9863 15.9734 2.9333 15.987C2.88029 16.0005 2.82513 16.0036 2.77097 15.9958C2.66157 15.9802 2.56286 15.9217 2.49656 15.8333C2.43026 15.7449 2.40179 15.6338 2.41741 15.5244C2.43304 15.415 2.49149 15.3163 2.57989 15.25C4.90036 13.5097 6.2761 11.7823 7.08084 10.2184L8.09961 8.23841M8.26394 9.62749L8.09961 8.23841M8.09961 8.23841L5.94291 8.79226M8.09961 8.23841L5.94291 8.79226M5.94291 8.79226C5.39896 8.93195 4.83152 8.95429 4.27828 8.85781M5.94291 8.79226L4.27828 8.85781M17.0283 8.85781C16.475 8.76133 15.9487 8.54822 15.4841 8.23266M17.0283 8.85781L15.4841 8.23266M15.4841 8.23266C15.0196 7.91709 14.6275 7.50628 14.3339 7.02753M15.4841 8.23266L14.3339 7.02753M14.3339 7.02753C14.0403 6.54878 13.852 6.01304 13.7814 5.4559M14.3339 7.02753L13.7814 5.4559M13.7814 5.4559C13.7108 4.89876 13.7596 4.33297 13.9245 3.79613M13.7814 5.4559L13.9245 3.79613M13.9245 3.79613C14.0894 3.25929 14.3666 2.76367 14.7378 2.34222M13.9245 3.79613L14.7378 2.34222M14.7378 2.34222C15.1089 1.92076 15.5655 1.58311 16.0772 1.35169M14.7378 2.34222L16.0772 1.35169M16.0772 1.35169C16.5888 1.1203 17.1439 1.00042 17.7054 1L16.0772 1.35169ZM4.27828 8.85781C3.72503 8.76133 3.19865 8.54822 2.7341 8.23266M4.27828 8.85781L2.7341 8.23266M2.7341 8.23266C2.26955 7.91709 1.87747 7.50628 1.5839 7.02753M2.7341 8.23266L1.5839 7.02753M1.5839 7.02753C1.29033 6.54878 1.10199 6.01304 1.0314 5.4559M1.5839 7.02753L1.0314 5.4559M1.0314 5.4559C0.960804 4.89876 1.00957 4.33297 1.17446 3.79613M1.0314 5.4559L1.17446 3.79613M1.17446 3.79613C1.33935 3.25929 1.61659 2.76368 1.98775 2.34222M1.17446 3.79613L1.98775 2.34222M1.98775 2.34222C2.35892 1.92076 2.81551 1.58311 3.32721 1.35169M1.98775 2.34222L3.32721 1.35169M3.32721 1.35169C3.83885 1.1203 4.39386 1.00042 4.95538 1L3.32721 1.35169Z" stroke="#CAC31C" stroke-width="2"/>
</svg>
