<svg width="68" height="58" viewBox="0 0 68 58" fill="none" xmlns="http://www.w3.org/2000/svg">
<path id="Vector" d="M55.8263 6.64107L67.0294 37.1991L12.1028 57.3362L0.899691 26.7781L12.7003 22.4518C12.7182 22.4452 12.9808 22.2487 13.4881 21.8621C13.9955 21.4755 14.6792 20.9339 15.5394 20.2374C16.3996 19.5409 17.3899 18.7565 18.5103 17.8844C19.6306 17.0122 20.842 16.0566 22.1445 15.0173C23.447 13.9781 24.7731 12.9202 26.1227 11.8437C27.4724 10.7671 28.822 9.69052 30.1716 8.61395C31.5213 7.53738 32.7856 6.53223 33.9645 5.5985C35.1434 4.66477 36.2369 3.80246 37.245 3.01158C38.2532 2.22069 39.0605 1.57364 39.6671 1.07041C40.2736 0.56719 40.7127 0.215651 40.9842 0.0157953L48.4777 9.33519L55.8263 6.64107ZM23.4818 18.4991L44.8571 10.6626L40.4141 5.09962L23.4818 18.4991ZM53.6382 11.295L5.5774 28.9149L14.2909 52.6822L62.3517 35.0623L53.6382 11.295ZM48.0172 17.2074L49.262 20.6028L45.829 21.8613L44.5842 18.466L48.0172 17.2074ZM50.5067 23.9981L51.7515 27.3934L48.3186 28.652L47.0738 25.2567L50.5067 23.9981ZM54.2411 34.1841L50.8082 35.4427L49.5634 32.0473L52.9963 30.7888L54.2411 34.1841ZM53.9397 22.7395L50.5067 23.9981L49.262 20.6028L52.6949 19.3442L53.9397 22.7395ZM56.4292 29.5302L52.9963 30.7888L51.7515 27.3934L55.1844 26.1349L56.4292 29.5302ZM19.7021 39.1433L14.9328 33.1884L18.3657 31.9299L21.327 34.6959L28.756 31.9723L23.9868 26.0174L27.4197 24.7588L33.3422 30.2909L40.208 27.7738C40.6729 27.6034 41.1368 27.6239 41.5997 27.8353C42.0626 28.0468 42.3783 28.3824 42.5468 28.8422C42.7154 29.302 42.6914 29.7621 42.4749 30.2227C42.2584 30.6832 41.9177 30.9987 41.4528 31.1691L34.587 33.6863L33.6436 41.7355L30.2107 42.9941L30.0008 35.3676L19.7021 39.1433Z" fill="#C23E3E"/>
</svg>
